<svg xmlns="http://www.w3.org/2000/svg" width="56" height="56" viewBox="0 0 56 56">
  <g fill="none" fill-rule="evenodd" transform="translate(1 1)">
    <polygon stroke="#FFF" stroke-width="2" points="0 54 54 54 54 0 0 0"/>
    <polygon fill="#FFF" fill-rule="nonzero" points="35.409 17.551 35.409 13 21.09 13 21.09 22.765 20.701 22.765 18 22.765 18 25.871 18.856 25.871 21.09 25.871 21.09 28.328 20.611 28.328 18 28.328 18 31.439 18.764 31.439 21.09 31.439 21.09 40.998 26.613 40.998 26.613 31.439 31.515 31.439 32.903 28.328 26.613 28.328 26.613 27.285 26.613 25.871 34.026 25.871 35.409 22.765 26.613 22.765 26.613 17.551"/>
  </g>
</svg>
