<svg xmlns="http://www.w3.org/2000/svg" width="86" height="87" viewBox="0 0 86 87">
  <g fill="none" fill-rule="evenodd" transform="translate(2 2)">
    <path stroke="#FFF" stroke-width="4" d="M40.7 35.06C37.36 35.06 34.64 37.78 34.64 41.12 34.64 44.46 37.36 47.18 40.7 47.18 44.04 47.18 46.76 44.46 46.76 41.12 46.76 37.78 44.04 35.06 40.7 35.06zM11.59 33.28L35.12 41.48M45.54 41.73L70.77 33.28"/>
    <path fill="#FFF" fill-rule="nonzero" d="M43.09,69.17 C43.09,69.93 42.2,70.54 41.09,70.54 L41.09,70.54 C39.99,70.54 39.09,69.92 39.09,69.17 L39.09,56.1 C39.09,55.34 39.99,54.73 41.09,54.73 L41.09,54.73 C42.2,54.73 43.09,55.34 43.09,56.1 L43.09,69.17 Z"/>
    <circle cx="41" cy="41.57" r="41" stroke="#FFF" stroke-width="4"/>
    <path stroke="#FFF" stroke-width="4" d="M71.3,40.85 C71.3,57.59 57.73,71.15 41,71.15 C24.26,71.15 10.7,57.58 10.7,40.85 C10.7,24.12 24.27,10.549989 41,10.549989 C57.74,10.54 71.3,24.11 71.3,40.85 Z"/>
  </g>
</svg>
