<svg xmlns="http://www.w3.org/2000/svg" width="95" height="101" viewBox="0 0 95 101">
  <path fill="#FFF" d="M67.3386254,66.9961773 C69.8668672,72.8609459 73.3465634,75.7902582 77.7703459,75.7902582 L93.5782644,75.7902582 L93.5782644,101 L77.7703459,101 C70.3938512,101 63.438303,98.4467546 56.9056234,93.3418805 C50.370381,88.2353896 45.8934196,82.06731 43.4696135,74.8321445 L31.9301053,41.9639598 L63.0698947,41.9639598 C65.0721136,41.9639598 66.7312323,41.0789253 68.0514153,39.3056226 C69.3661523,37.536847 70.0270447,35.6290268 70.0270447,33.5876592 C70.0270447,31.4399064 69.3635895,29.5078343 68.0434064,27.7888559 C66.7193791,26.0708477 65.0548144,25.2100651 63.0471495,25.2100651 L24.9742367,25.2100651 L24.9742367,101 L0,101 L0,0 L63.0698947,0 C72.0263804,0 79.5909235,3.33351155 85.753593,9.9947142 C91.9191458,16.6559168 95,24.5727238 95,33.7373746 C95,42.0528837 92.3945526,49.4080155 87.17661,55.8024466 C81.9589878,62.2010815 75.3475009,65.9303849 67.3386254,66.9961773 L67.3386254,66.9961773 Z"/>
</svg>
