<svg xmlns="http://www.w3.org/2000/svg" width="48" height="28" viewBox="0 0 48 28">
  <g fill="#FFF">
    <path fill-opacity=".5" d="M47.9237556,13.5638255 C48.0770266,17.5284564 46.1613726,20.9155202 43.9167916,23.1469631 C41.4391406,25.6075839 38.0355336,27.1300839 34.2937556,27.1300839 C30.5539226,27.1281376 27.1668596,25.6095302 24.7067249,23.1498826 C22.248537,20.6912081 20.7299296,17.3051175 20.7299296,13.5638255 C20.7299296,13.4324497 20.7313894,13.3010738 20.735282,13.1682383 L20.7367417,13.1166611 L20.7338223,13.0670302 C20.4754498,9.3724497 17.3983357,6.4515269 13.639527,6.4500671 C11.7297115,6.4515269 9.94543304,7.2422148 8.62583574,8.4980705 C7.46437594,9.6030873 6.65519814,10.7713591 6.46008064,13.5638255 L0.00758064163,13.5638255 C-0.124768258,9.7733893 1.72081894,6.2632215 4.01697664,3.9797148 C6.49365454,1.519094 9.89823504,2.30926389e-14 13.639527,2.30926389e-14 C17.3813055,2.30926389e-14 20.7664229,1.5171477 23.2265572,3.9782551 C25.5086046,6.2612752 26.9649296,9.3452014 27.1644266,12.7687584 L27.1464226,12.7687584 L27.1882686,13.8372819 C27.3347286,17.6379363 30.4609866,20.6732047 34.2937556,20.675151 C36.2551476,20.675151 38.0496446,19.8786242 39.3492916,18.5969799 C40.4192756,17.5440269 41.2342916,16.646292 41.4736876,13.5638255"/>
    <path d="M0.00855384163,13.5638255 C-0.144231358,17.5284564 1.77142294,20.9155202 4.01600354,23.1469631 C6.49316794,25.6075839 9.89677534,27.1300839 13.6385538,27.1300839 C17.378386,27.1281376 20.7654498,25.6095302 23.225584,23.1498826 C25.6837716,20.6912081 27.2028656,17.3051175 27.2028656,13.5638255 C27.2028656,13.4324497 27.2014066,13.3010738 27.1970266,13.1682383 L27.1955676,13.1166611 L27.1989736,13.0670302 C27.4573456,9.3724497 30.5344596,6.4515269 34.2927816,6.4500671 C36.2025976,6.4515269 37.9868756,7.2422148 39.3069596,8.4980705 C40.4679326,9.6030873 41.2775976,10.7713591 41.4727146,13.5638255 L47.9247286,13.5638255 C48.0570776,9.7733893 46.2119766,6.2632215 43.9158186,3.9797148 C41.4391406,1.519094 38.0345606,2.30926389e-14 34.2927816,2.30926389e-14 C30.5510036,2.30926389e-14 27.1663726,1.5171477 24.7062384,3.9782551 C22.4237048,6.2612752 20.9673793,9.3452014 20.7683692,12.7687584 L20.7863726,12.7687584 L20.744527,13.8372819 C20.5975806,17.6379363 17.4718088,20.6732047 13.6385538,20.675151 C11.6776478,20.675151 9.88266454,19.8786242 8.58350354,18.5969799 C7.51303374,17.5440269 6.69801694,16.646292 6.45862094,13.5638255"/>
  </g>
</svg>
