<svg xmlns="http://www.w3.org/2000/svg" width="233" height="232" viewBox="0 0 233 232">
  <path fill="#FFF" fill-rule="evenodd" d="M116.58697,0.00344649089 C180.077797,-0.449300013 233.159603,51.5634032 233,115.997159 C232.840258,180.23605 180.987173,231.906072 116.527822,232 C51.5058285,232.094547 -0.0643332628,178.953027 2.84217094e-14,115.865023 C0.0653278591,52.182844 52.4705655,-0.490537988 116.58697,0.00344649089 M155.179365,178.24385 C154.976861,178.238622 154.773773,178.233395 154.571269,178.227877 C154.571269,177.610179 154.473368,176.971861 154.598658,176.38059 C154.725405,175.779155 155.209959,175.240738 155.28659,174.643368 C155.377208,173.932739 155.458792,172.952611 155.066312,172.524839 C154.663343,172.085161 153.617021,171.916434 152.971921,172.085161 C151.969014,172.3474 151.030501,172.936929 150.135402,173.49945 C149.488553,173.905731 149.036924,174.701449 148.358316,174.963688 C145.897086,175.915646 144.747618,177.897683 143.876703,180.165191 C143.765398,180.454728 143.573092,180.713482 143.300949,181.192946 C142.932362,179.354952 141.735692,179.305582 140.419267,179.465597 C140.734242,180.899924 141.12002,182.321472 141.340298,183.767996 C141.515997,184.921788 141.501719,186.105782 141.549796,187.277289 C141.581847,188.066619 141.348165,188.950912 141.629049,189.630468 C142.526771,191.803883 142.524148,193.941288 141.337676,195.897769 C140.291646,197.622504 138.855467,199.10678 137.687934,200.765011 C136.725819,202.131092 135.69698,203.511403 135.072567,205.037788 C134.214764,207.134827 134.9161,208.573219 137.151807,209.849273 C136.436777,211.156981 135.934158,212.684238 134.92455,213.721286 C134.183879,214.482156 133.990698,214.877692 134.529156,215.757048 C155.626623,211.955894 173.62213,202.438925 189.117654,187.097236 C187.668946,186.552721 186.563475,186.163283 185.481898,185.716345 C185.089418,185.554297 184.523279,185.323423 184.428875,185.007458 C183.579521,182.164942 181.532624,180.542431 178.952805,179.394157 C178.53818,179.209457 178.161435,178.885652 177.839759,178.555748 C175.513143,176.168592 173.326095,175.836365 170.398667,177.451906 C169.940337,177.705433 169.474722,177.94502 168.862547,178.270567 C166.70755,174.905897 162.591028,174.987502 159.602995,172.983104 C158.046187,171.938796 155.728312,173.600221 155.485016,175.574126 C155.375459,176.463066 155.281054,177.354039 155.179365,178.24385 M84.7008239,23.8328976 C85.1265203,22.4171573 85.5522167,21.0014169 86.0813506,19.2412524 C84.6271064,19.7262342 83.3074767,20.1662027 81.8835354,20.6413107 C82.7687275,21.816593 83.5187224,22.8121125 84.2687173,23.8073417 C83.3077681,23.7205096 82.3386605,23.5099636 81.3884921,23.5753055 C79.9776626,23.6720115 78.5805276,23.9635814 77.1778565,24.1726753 C76.9383476,24.2083955 76.6947595,24.2301762 76.4604954,24.287677 C75.1953525,24.5995755 75.0726843,25.0128265 75.8124811,26.1033095 C76.195637,26.6684441 76.4639919,27.3105368 76.7842111,27.9177805 C76.6364849,28.020585 76.4887586,28.1233895 76.340741,28.2264845 C75.401062,27.4905899 74.3940759,26.8241029 73.5391866,26.0007954 C72.5053941,25.0052759 71.5974749,25.0308318 70.3317492,25.6703108 C54.106918,33.8708597 41.1180787,45.6286196 31.1047436,60.7385623 C30.0502636,62.3294188 30.2559731,63.6510669 30.8684398,65.1597379 C33.3247168,64.715994 33.2941226,64.7177365 33.4229096,67.1722672 C33.4409748,67.5207572 33.8628833,67.9282 34.1988367,68.1669156 C36.6052889,69.8771299 39.0912859,71.4813452 41.4348014,73.2711315 C42.3266951,73.9521389 43.0536715,74.9554995 43.6002879,75.9513094 C44.3456208,77.3089681 43.6323389,78.3916102 41.9324671,78.6628515 L41.9324671,77.3449788 C40.96773,77.0766415 40.1032254,76.8364739 39.0924514,76.5556491 C38.8733387,78.5048694 39.203756,80.1628103 40.3287484,81.4005303 C40.0082377,82.3977924 39.5595228,83.2405572 39.4887191,84.1138149 C39.2425087,87.1485814 38.9129655,90.2025148 39.0324285,93.2329252 C39.1218801,95.5024659 39.7503724,97.773749 40.3351586,99.9933394 C40.7457036,101.552251 41.7290885,102.758897 43.2203371,102.83905 C43.6777932,104.077061 44.2112977,105.083035 44.4123453,106.151157 C44.9510945,109.013421 46.9274797,110.673394 49.2791536,111.869005 C52.3583867,113.434015 54.753184,115.462808 55.7686199,118.894272 C56.1069044,120.0379 56.6762478,121.13361 57.2691925,122.178209 C58.451294,124.261307 59.7913198,126.257283 60.9198086,128.367099 C61.2997594,129.077438 61.2365314,130.023298 61.3760992,130.861416 L60.8600771,131.05628 C61.4265068,131.570593 61.9209673,132.213557 62.572478,132.576277 C64.6651211,133.740524 66.3163337,135.123738 66.3515898,137.7923 C66.3574173,138.235463 67.0118418,138.670204 67.3667344,139.109011 C67.5234933,139.027697 67.6799608,138.946092 67.8367196,138.864487 C67.8049599,138.159666 67.9293763,137.401701 67.7117204,136.759318 C67.1246032,135.027613 66.5342809,133.270062 65.6837622,131.659458 C64.374622,129.180533 62.7338989,126.87353 61.4553528,124.380665 C60.6724327,122.854279 60.3041368,121.116476 59.7493621,119.473636 C61.0217893,119.627262 61.9297085,119.959199 62.7939218,120.38 C63.1042343,120.531013 63.505164,120.878051 63.5325531,121.166717 C63.8600567,124.624608 66.201824,126.9804 68.1199344,129.551965 C69.7029656,131.674269 71.4313921,133.688541 73.0106354,135.813458 C73.333477,136.248199 73.279573,136.961442 73.4651778,137.868387 C73.9584728,138.151245 74.8593991,138.550846 75.6251281,139.129049 C78.4875795,141.289687 80.9945554,143.820014 80.7996267,147.688833 C80.6352921,150.943148 81.972987,153.044252 84.7025721,154.509652 C88.2427578,156.410955 91.7709972,158.33462 95.3178845,160.224306 C97.1488743,161.200078 99.0235702,161.414109 101.073964,160.77434 C104.687867,159.646394 105.791881,159.997788 108.079453,163.001481 C111.124304,166.999822 115.213145,168.358933 120.088986,168.07259 C122.343342,172.847773 124.94414,177.435063 130.220619,179.88756 C130.421958,179.724932 130.815603,179.407225 131.200216,179.096779 C131.895141,180.379512 132.470312,181.668054 133.264596,182.804421 C133.620363,183.313217 134.439704,183.813009 135.002929,183.766253 C135.454849,183.7285 136.00467,182.922908 136.217664,182.349932 C136.736309,180.953649 136.289342,179.167058 138.131987,178.271438 C137.692596,178.158179 137.373542,178.09458 137.200175,178.224973 C134.987195,179.885237 132.742455,179.867522 131.136114,177.716759 C129.827848,175.964725 128.885546,173.90515 128.004725,171.88507 C127.451116,170.615695 127.92518,170.126648 129.292595,169.991898 C129.746263,169.947466 130.197018,169.873993 130.36718,169.851341 C130.027438,168.138513 129.730529,166.572922 129.39982,165.01401 C129.301627,164.552261 129.217712,164.02546 128.940907,163.674357 C127.896043,162.349514 126.774547,161.084205 125.672282,159.7855 C123.931909,161.775377 122.213972,160.763885 120.472433,159.903986 C120.262353,160.429916 120.070047,160.910832 119.838405,161.490777 C119.074133,161.417884 118.332297,161.346444 117.484692,161.26542 C117.917964,157.939955 118.05928,154.752434 119.730014,151.882619 C120.330243,150.85167 120.773131,149.702815 121.114912,148.556283 C121.476506,147.342667 120.836942,146.625068 119.618418,146.396807 C116.358534,145.785497 114.004237,147.266289 113.121959,150.485174 C112.981226,150.997745 112.845154,151.511477 112.69568,152.021725 C112.234727,153.593414 111.187823,154.491647 109.542729,154.55786 C108.187843,154.612747 106.828004,154.563378 105.470787,154.533466 C103.315208,154.485839 101.627282,153.530976 100.482185,151.739448 C98.2021888,148.172363 96.9175239,144.366272 97.6774255,140.043254 C98.1867461,137.147013 98.8426274,134.222311 97.598172,131.32665 C97.527951,131.16315 97.4790003,130.857641 97.5661209,130.779521 C98.9571371,129.531056 99.5902913,127.413689 101.837654,127.135187 C102.919814,127.001309 103.50868,126.469572 102.772671,125.336979 C103.867069,125.23795 104.878717,125.133984 105.892113,125.056735 C108.092564,124.888008 110.3003,124.383279 112.426742,125.587021 C112.825632,125.812668 113.70558,125.600089 114.11292,125.276284 C114.440132,125.016659 114.503943,124.276699 114.476845,123.760643 C114.436927,123.00413 114.211695,122.2572 114.065717,121.506494 C115.215476,123.227454 115.922057,123.891617 116.895826,123.320094 C118.884449,122.152943 120.683096,123.06134 122.535357,123.42377 C123.365188,123.586398 124.228527,123.911946 124.917333,124.39141 C126.859336,125.74268 126.826994,125.789145 128.996268,124.725089 C129.654189,126.336565 130.328718,127.921903 130.950218,129.52728 C131.611344,131.236333 132.17282,132.984591 132.873281,134.67651 C133.338313,135.80039 134.495357,136.01413 135.453683,135.785579 C135.857818,135.689163 136.252338,134.56296 136.243888,133.910122 C136.209506,131.301094 135.980486,128.695841 135.896862,126.086523 C135.862772,125.021596 135.60986,124.37747 134.447863,123.997616 C132.681558,123.420285 132.051317,121.86631 132.72876,120.136058 C133.43942,118.320425 134.676008,116.956087 136.450763,116.046528 C138.254364,115.121868 140.103127,114.22712 141.740354,113.05329 C143.424492,111.846063 144.389811,110.111164 144.158752,107.973759 C144.631651,107.43418 145.328908,106.539142 145.1299,106.242345 C144.682059,105.575858 143.789291,105.205878 143.299493,104.868133 C143.434107,102.487075 143.535505,100.225376 145.534617,98.9835899 C146.480998,99.3004253 147.509545,99.6977038 148.268864,99.4041011 C148.888615,99.1642238 149.674449,97.9781964 149.536338,97.4217742 C149.1188,95.7440855 150.162791,95.408664 151.253984,94.9800214 C152.726585,94.4015281 154.168882,93.6307845 155.699175,93.3502501 C156.946253,93.1219892 157.044446,92.5362357 156.976556,91.5958937 C156.810473,89.2981834 158.037737,88.0746934 160.082595,87.2934951 C161.517609,86.7454947 162.830245,85.8861766 164.221844,85.2162047 C165.192409,84.7489378 166.234651,84.4248421 167.190356,83.9317289 C168.208705,83.4060899 169.274549,82.8752236 170.09593,82.1091265 C170.481417,81.7496011 170.658863,80.6222362 170.381767,80.2040482 C169.467729,78.8243185 168.303402,77.6098311 167.308653,76.419738 C167.678697,76.419738 168.442969,76.5783009 169.090692,76.372111 C169.65887,76.1911867 170.096513,75.6013675 170.591848,75.1921822 C170.195288,74.7707998 169.858461,74.0865979 169.390515,73.9811797 C168.284171,73.7325902 167.078177,73.5380167 165.978825,73.7206835 C163.675519,74.1028608 161.749542,75.3135729 160.081721,76.9587358 C159.298801,77.7315122 158.388551,78.3759281 157.339315,79.2404736 C157.80697,77.9130174 158.141466,76.9630919 158.479459,76.0027117 C159.80783,75.1712728 161.268193,74.2384814 162.749244,73.3393774 C163.280126,73.0167338 163.833444,72.6839259 164.422309,72.5131659 C166.046133,72.0427044 167.686564,71.6230645 169.333989,71.2420488 C173.116597,70.3664679 176.926595,69.2722095 180.063228,71.8870456 C181.858379,70.4271632 183.453065,68.9794779 185.209755,67.7647001 C186.096404,67.1519387 187.320172,67.0453588 188.304722,66.5415005 C188.74761,66.3152724 189.16136,65.7147081 189.263923,65.2175291 C189.423013,64.4430102 189.305881,63.6118618 189.305881,62.7589327 C186.631365,62.6003697 186.117966,60.5785473 185.721407,58.9438391 C185.151189,58.7411341 184.84379,58.5979629 184.520074,58.5244896 C183.940824,58.3923538 183.27999,58.0760992 182.779702,58.2340813 C180.622956,58.9142175 179.109272,58.0723239 177.826647,56.4521361 C177.113656,55.5521609 176.377356,54.6699005 175.658247,53.7879306 C176.067335,53.4931662 176.394256,53.2579355 176.882306,52.906251 C175.757896,51.8082174 174.757612,50.8318647 173.6434,49.7439953 C172.951971,48.6700655 172.109902,47.4326358 171.343299,46.1504833 C170.748898,45.1567062 170.14896,45.136668 169.438009,45.9829177 C169.188885,46.2794246 168.94384,46.5814492 168.723562,46.8991558 C168.107016,47.7886764 167.683068,48.8599925 166.177542,48.4789769 C165.760587,48.3732683 165.169682,48.9415973 164.661527,49.2064496 C163.918816,49.5932734 163.178436,49.985615 162.40047,50.3948003 C162.314223,47.9109383 160.383001,48.3671697 159.100084,47.7747368 C161.200886,46.246318 158.584062,44.9801379 158.978582,43.5068968 C159.033068,43.3039014 158.359996,42.8029471 157.94508,42.597338 C156.079417,41.6718069 154.26183,40.5322448 152.283697,39.9772746 C149.271771,39.1321865 146.161653,38.5461426 143.054448,38.1642557 C141.237152,37.9409317 140.652949,39.0790418 141.233656,40.7503414 C141.691403,42.0682142 142.120888,43.4229688 142.307366,44.7957287 C142.392156,45.4189449 142.043382,46.3258899 141.57194,46.7585982 C139.829528,48.3578766 139.813211,48.989805 141.775319,50.2434976 C142.020364,50.4000276 142.276481,50.5405852 142.517155,50.7029234 C144.624367,52.1256336 144.800065,54.8197512 142.854857,56.4901796 C142.272402,56.9905531 141.588257,57.383185 140.920138,57.7723321 C137.736011,59.626589 138.01806,60.3206648 139.349345,63.565106 C139.541651,64.033825 140.089433,64.3500796 140.316995,64.8129904 C140.491237,65.1669981 140.614196,65.8619451 140.425969,66.0271874 C138.935886,67.3331534 137.274184,68.3521961 135.633169,68.5830706 C134.754679,67.3247316 133.993903,66.3701596 133.386973,65.3267226 C132.798107,64.3146498 132.305104,63.2352022 131.892228,62.1392014 C131.658546,61.5200509 131.712159,60.7998384 131.565015,60.1406116 C131.178946,58.4141344 130.33746,57.5960543 128.579022,57.5008004 C127.301058,57.4319736 126.0094,57.6172541 124.625377,57.6945027 C122.749807,55.7069485 120.121911,54.5482194 117.459051,53.781832 C114.772297,53.0081844 111.893238,52.896958 109.017675,52.483707 C108.567212,49.3751768 107.6016,48.6941694 104.902027,48.2754007 C104.835302,46.7010974 104.197195,44.7844028 104.818111,43.4488151 C105.955633,41.0015446 107.029635,38.1970718 110.53573,37.7756894 C112.57476,37.5302944 112.708792,36.7151184 111.339337,35.3202874 C117.931658,35.3528132 119.704082,34.4670679 120.636477,30.6060899 C121.852377,30.5753066 122.43425,29.9764847 122.308668,28.6774885 C122.281279,28.392598 122.646952,27.9166188 122.947067,27.7786749 C124.713955,26.9655317 126.425482,26.405915 128.178383,28.0356862 C129.182747,28.9696392 131.150391,28.7460249 131.950794,27.9311392 C132.846766,27.0192573 132.833072,25.8695309 131.986924,24.3605695 C131.848813,24.1140129 131.882612,23.6978578 131.979348,23.4071591 C132.486629,21.8833869 131.566764,19.6780264 130.229651,19.4802584 C128.99248,19.2970108 127.734039,19.2215046 126.482591,19.1860748 C125.80777,19.1669079 124.793791,18.9461976 124.805446,19.9977659 C124.810108,20.407532 125.661209,20.8068434 126.12391,21.2145766 C126.190343,21.2732391 126.239877,21.3516493 126.322335,21.4515498 C126.17053,21.7338266 125.984342,22.0152322 125.864005,22.3219034 C125.744251,22.6262513 125.794658,23.1254631 125.592445,23.2485962 C123.7836,24.3501148 121.935127,25.3874531 119.873953,26.5728997 C119.289749,25.0944312 118.776641,23.7088933 118.197391,22.3518154 C117.410683,20.5097557 116.276658,20.3822665 114.988496,21.9586026 C114.818043,22.1671158 114.677601,22.3994424 114.477428,22.6860754 C113.132449,20.5997823 110.898489,20.2571005 108.879855,19.5287566 C110.15811,17.4386882 109.01243,15.0129079 106.671537,15.0797459 C104.476913,15.145334 102.29511,15.655291 100.133411,15.965447 C100.30707,18.5788311 100.789875,19.1259603 102.962063,19.3957496 C103.298891,19.4375684 103.648539,19.4169494 103.975751,19.4953596 C105.534015,19.8682438 106.70184,20.730466 107.468734,22.0849302 C106.232146,22.6213143 105.166885,23.0760937 104.107743,23.5445222 C102.258688,24.3620215 102.163992,24.6219369 102.53491,26.6603126 C102.658452,27.3389968 102.554432,28.0586285 102.554432,28.7593836 C102.37786,28.7959751 102.200996,28.8325665 102.024424,28.8694484 C101.305023,27.3279613 100.585623,25.7864741 100.002293,24.5368473 C98.7039337,24.5368473 97.6010857,24.547302 96.4982377,24.5342336 C95.141895,24.5179708 93.7415549,24.2516664 92.4391162,24.5022887 C89.7605214,25.0168922 87.2296528,24.6268739 84.7008239,23.8328976"/>
</svg>
