<svg xmlns="http://www.w3.org/2000/svg" width="159" height="109" viewBox="0 0 159 109">
  <g fill="none" fill-rule="evenodd" stroke-linecap="round" transform="translate(0 1)">
    <path stroke="#FFF" d="M123.624653,101.76206 C119.305701,104.92155 113.946321,106.772147 108.042637,106.950991 C101.658925,107.145066 96.1373118,105.677531 91.6453262,102.787344 C87.1314569,99.8830761 83.5998818,95.5206678 81.3746633,89.6777059 C80.6991783,87.9027647 80.0654844,86.1119193 79.4556728,84.3120145 C78.8080734,86.2026437 78.1261533,88.0795695 77.3824619,89.9317939 C73.5417565,99.4944539 65.4269764,105.326085 56.5823114,106.859085 C47.7316045,108.393133 38.1256691,105.626545 31.300134,97.9156405 C29.0282965,95.3481273 27.1153425,92.1175774 26.0834539,88.867377 C21.5283278,74.5310547 17.0391279,60.1736725 12.5499494,45.8162999 C8.91566666,34.1930707 5.28139429,22.569849 1.61180896,10.9570274 C0.385170336,7.072872 1.18057441,4.75681327 2.27559025,3.20084993 C3.45107559,1.53054341 5.4747316,0.0563 9.4727,0.0563 C11.2659044,0.0563 13.0598763,0.0421980416 14.8539542,0.0281464057 C19.6331134,-0.00928508176 24.4129409,-0.0443908983 29.1810358,0.170335189 C33.6142427,0.369441082 38.0010629,2.23178878 41.6087366,5.27632594 C45.1065522,8.22815323 47.8474623,12.2715526 49.1824856,16.7647981 C50.489879,21.1635679 51.7134445,25.5874159 52.9367622,30.0115125 C53.044721,30.4019426 53.1526792,30.7923742 53.2606968,31.1827918 C53.6577914,30.1348641 54.0632173,29.1028647 54.4855796,28.0778952 C57.6969773,20.2819277 61.9267927,15.9418376 66.6310301,13.5245496 C72.2615806,10.6312725 78.8239326,10.5401988 85.9996615,11.5889896 C90.3064979,12.2192278 93.9369381,13.9949406 96.917465,16.6008031 C99.9603566,19.2611907 102.326095,22.8195721 103.955072,26.9716024 C104.378501,28.0504875 104.793198,29.132821 105.209058,30.2183446 C105.353243,30.5947122 105.497492,30.971527 105.642288,31.3487679 C106.065087,29.8496532 106.480578,28.3483967 106.89612,26.8471548 C107.818066,23.5164117 108.740438,20.1857939 109.738871,16.8779082 C111.317827,11.645124 114.24875,7.5024862 118.104404,4.6233258 C121.961206,1.74330881 126.778332,0.103676533 132.251666,0.0485503452 C134.92362,0.0218113558 137.596043,0.0298597129 140.268484,0.0380505461 C143.089707,0.0466973861 145.91095,0.0555336537 148.731336,0.0216643927 C152.817952,-0.0276759788 155.102339,1.21738812 156.39404,2.83869043 C157.572814,4.31825078 158.682526,6.58007398 157.233612,11.1472813 C152.777853,25.1922636 148.399033,39.2613078 144.02021,53.3302784 C140.362079,65.0836982 136.70395,76.8370682 133.001125,88.5763346 C131.25413,94.1150486 127.949852,98.5980016 123.624653,101.76206 Z"/>
    <path fill="#FFF" d="M147.0057,9.7153 C142.6117,9.7153 138.9797,9.7063 135.3457,9.7173 C125.5637,9.7483 121.0157,13.2223 118.4327,22.5363 C115.4167,33.4133 112.4237,44.2973 109.2397,55.1243 C108.8397,56.4843 107.3437,57.5213 106.3547,58.7073 C105.3567,57.5653 103.9257,56.5823 103.4327,55.2523 C100.7167,47.9383 98.2927,40.5173 95.6507,33.1763 C92.5667,24.6053 87.5327,20.8053 79.5167,20.7893 C71.3887,20.7723 66.5397,24.3513 63.3387,33.0693 C60.7627,40.0873 58.5187,47.2283 55.8947,54.2273 C55.2707,55.8943 53.7197,57.2133 52.5947,58.6933 C51.5207,57.2223 49.9427,55.9013 49.4517,54.2553 C46.1327,43.1273 42.9807,31.9463 39.9097,20.7463 C38.5207,15.6813 35.5987,11.6323 30.5677,10.6893 C24.7167,9.5913 18.6117,9.8473 12.0887,9.4863 C12.6367,11.8193 12.8297,12.9503 13.1687,14.0363 C20.4447,37.3203 27.7157,60.6073 35.0367,83.8773 C37.6927,92.3193 43.6307,97.0003 51.6707,97.1813 C59.7657,97.3613 65.8397,92.9233 68.7107,84.4453 C71.3717,76.5883 73.7307,68.6263 76.4587,60.7923 C76.9477,59.3883 78.5817,58.3833 79.6877,57.1933 C80.6217,58.3713 81.9617,59.4103 82.4247,60.7513 C85.1327,68.5973 87.5597,76.5383 90.2277,84.3983 C93.0967,92.8523 99.1517,97.3243 107.2107,97.1813 C115.2977,97.0373 121.2587,92.2573 123.8607,83.9263 C129.0087,67.4533 134.2057,50.9963 139.3557,34.5253 C141.8657,26.4943 144.3167,18.4453 147.0057,9.7153 M72.7427,88.0683 C66.4567,103.7193 46.2077,107.2133 35.0447,94.6023 C33.2237,92.5443 31.6767,89.9613 30.8487,87.3533 C22.6067,61.4133 14.5807,35.4043 6.3797,9.4513 C5.3587,6.2183 6.4007,5.0563 9.4727,5.0563 C15.9677,5.0563 22.4727,4.8733 28.9567,5.1653 C35.7477,5.4703 42.2867,11.1113 44.3897,18.1893 C46.5157,25.3423 48.4177,32.5623 50.4627,39.7403 C51.0367,41.7563 51.7687,43.7263 52.9087,47.1683 C55.3077,40.4693 56.9857,35.1343 59.1087,29.9823 C64.9507,15.8003 74.3697,14.9423 85.2757,16.5363 C92.1367,17.5403 96.7627,22.3293 99.3007,28.7983 C101.4687,34.3223 103.4037,39.9383 106.4797,45.6053 C107.5347,42.2653 108.6527,38.9443 109.6317,35.5823 C111.3017,29.8403 112.7977,24.0473 114.5257,18.3223 C117.0187,10.0603 123.6637,5.1353 132.3017,5.0483 C137.7977,4.9933 143.2957,5.0873 148.7917,5.0213 C152.1047,4.9813 153.7427,5.6163 152.4677,9.6353 C144.2887,35.4163 136.3687,61.2783 128.2327,87.0723 C125.3927,96.0763 117.4967,101.6623 107.8907,101.9533 C97.4307,102.2713 89.6767,97.4283 86.0477,87.8993 C83.8347,82.0843 82.0847,76.0933 80.1267,70.1823 C79.6737,70.1943 79.2217,70.2073 78.7697,70.2213 C76.7787,76.1773 75.0787,82.2503 72.7427,88.0683 Z"/>
  </g>
</svg>
